<mxfile host="app.diagrams.net" modified="2023-12-20T16:57:26.630Z" agent="Mozilla/5.0 (Windows NT 10.0; Win64; x64) AppleWebKit/537.36 (KHTML, like Gecko) Chrome/120.0.0.0 Safari/537.36 Edg/120.0.0.0" etag="7o-XqKv1_OfWBDPff5Cn" version="22.1.11" type="device">
  <diagram name="Page-1" id="jkemIDF-yhUULmrkBXbP">
    <mxGraphModel dx="2684" dy="3225" grid="1" gridSize="10" guides="1" tooltips="1" connect="1" arrows="1" fold="1" page="1" pageScale="1" pageWidth="850" pageHeight="1100" math="0" shadow="0">
      <root>
        <mxCell id="0" />
        <mxCell id="1" parent="0" />
        <mxCell id="szk8Xqu-uPIid_1Q9JTA-46" value="Old Animation System" style="swimlane;whiteSpace=wrap;html=1;fillColor=#f8cecc;strokeColor=#b85450;" vertex="1" parent="1">
          <mxGeometry x="-740" y="-1650" width="950" height="590" as="geometry" />
        </mxCell>
        <mxCell id="szk8Xqu-uPIid_1Q9JTA-45" style="edgeStyle=orthogonalEdgeStyle;rounded=0;orthogonalLoop=1;jettySize=auto;html=1;exitX=1;exitY=0.5;exitDx=0;exitDy=0;strokeWidth=3;" edge="1" parent="szk8Xqu-uPIid_1Q9JTA-46" source="szk8Xqu-uPIid_1Q9JTA-22" target="szk8Xqu-uPIid_1Q9JTA-23">
          <mxGeometry relative="1" as="geometry" />
        </mxCell>
        <mxCell id="szk8Xqu-uPIid_1Q9JTA-23" value="&lt;div style=&quot;text-align: center;&quot;&gt;&lt;span style=&quot;background-color: initial;&quot;&gt;Timeline.js&lt;/span&gt;&lt;/div&gt;&lt;div style=&quot;text-align: center;&quot;&gt;&lt;br&gt;&lt;/div&gt;&lt;ul&gt;&lt;li&gt;Fades in black and title separately&lt;/li&gt;&lt;/ul&gt;&lt;div&gt;&lt;br&gt;&lt;/div&gt;&lt;ul&gt;&lt;li&gt;creates timeline_length, timeline_pos, and pos&lt;/li&gt;&lt;li&gt;creates a variable, timeline that stores multiple arrays&lt;/li&gt;&lt;li&gt;creates an array, animationQueue&lt;/li&gt;&lt;/ul&gt;&lt;ul&gt;&lt;li&gt;AnimateInTimeline func&lt;/li&gt;&lt;ul&gt;&lt;li&gt;Adds all attributes to timeline variable&lt;/li&gt;&lt;/ul&gt;&lt;li&gt;progressTimeline func&lt;/li&gt;&lt;ul&gt;&lt;li&gt;Progresses through the timeline array every push of next&lt;/li&gt;&lt;/ul&gt;&lt;/ul&gt;&lt;ul&gt;&lt;li&gt;BtnNext func&lt;/li&gt;&lt;ul&gt;&lt;li&gt;progresses the timeline&lt;/li&gt;&lt;/ul&gt;&lt;/ul&gt;&lt;ul&gt;&lt;li&gt;BtnBack func&lt;/li&gt;&lt;ul&gt;&lt;li&gt;Backs up the timeline&lt;/li&gt;&lt;/ul&gt;&lt;/ul&gt;&lt;div&gt;&lt;/div&gt;" style="rounded=0;whiteSpace=wrap;html=1;align=left;" vertex="1" parent="szk8Xqu-uPIid_1Q9JTA-46">
          <mxGeometry x="315" y="115" width="350" height="360" as="geometry" />
        </mxCell>
        <mxCell id="szk8Xqu-uPIid_1Q9JTA-31" style="edgeStyle=orthogonalEdgeStyle;rounded=0;orthogonalLoop=1;jettySize=auto;html=1;exitX=0;exitY=0.5;exitDx=0;exitDy=0;entryX=1;entryY=0.5;entryDx=0;entryDy=0;strokeWidth=3;" edge="1" parent="szk8Xqu-uPIid_1Q9JTA-46" source="szk8Xqu-uPIid_1Q9JTA-26" target="szk8Xqu-uPIid_1Q9JTA-23">
          <mxGeometry relative="1" as="geometry" />
        </mxCell>
        <mxCell id="szk8Xqu-uPIid_1Q9JTA-33" style="edgeStyle=orthogonalEdgeStyle;rounded=0;orthogonalLoop=1;jettySize=auto;html=1;exitX=0;exitY=0.5;exitDx=0;exitDy=0;entryX=1;entryY=0.5;entryDx=0;entryDy=0;strokeWidth=3;" edge="1" parent="szk8Xqu-uPIid_1Q9JTA-46" source="szk8Xqu-uPIid_1Q9JTA-29" target="szk8Xqu-uPIid_1Q9JTA-23">
          <mxGeometry relative="1" as="geometry" />
        </mxCell>
        <mxCell id="szk8Xqu-uPIid_1Q9JTA-32" style="edgeStyle=orthogonalEdgeStyle;rounded=0;orthogonalLoop=1;jettySize=auto;html=1;exitX=0;exitY=0.5;exitDx=0;exitDy=0;strokeWidth=3;" edge="1" parent="szk8Xqu-uPIid_1Q9JTA-46" source="szk8Xqu-uPIid_1Q9JTA-30" target="szk8Xqu-uPIid_1Q9JTA-23">
          <mxGeometry relative="1" as="geometry" />
        </mxCell>
        <mxCell id="szk8Xqu-uPIid_1Q9JTA-22" value="&lt;div style=&quot;text-align: right;&quot;&gt;&lt;span style=&quot;background-color: initial;&quot;&gt;Animations.js&lt;/span&gt;&lt;/div&gt;&lt;div style=&quot;text-align: right;&quot;&gt;&lt;br&gt;&lt;/div&gt;&lt;ul&gt;&lt;li&gt;list of animations&lt;/li&gt;&lt;/ul&gt;&lt;div&gt;&lt;ul&gt;&lt;li&gt;animations.animate()&lt;/li&gt;&lt;/ul&gt;&lt;ul&gt;&lt;li&gt;Preset.animate()&lt;/li&gt;&lt;/ul&gt;&lt;/div&gt;&lt;br&gt;&lt;br&gt;&lt;br&gt;&lt;br&gt;" style="rounded=0;whiteSpace=wrap;html=1;align=left;" vertex="1" parent="szk8Xqu-uPIid_1Q9JTA-46">
          <mxGeometry x="30" y="185" width="230" height="220" as="geometry" />
        </mxCell>
        <mxCell id="szk8Xqu-uPIid_1Q9JTA-30" value="&lt;div style=&quot;text-align: center;&quot;&gt;&lt;span style=&quot;background-color: initial;&quot;&gt;CaseStudy.js&lt;/span&gt;&lt;/div&gt;&lt;div style=&quot;text-align: center;&quot;&gt;&lt;br&gt;&lt;/div&gt;&lt;ul&gt;&lt;li&gt;Call AnimateInTimeline in the order of the slides&lt;/li&gt;&lt;/ul&gt;&lt;div&gt;&lt;/div&gt;&lt;br&gt;" style="rounded=0;whiteSpace=wrap;html=1;align=left;" vertex="1" parent="szk8Xqu-uPIid_1Q9JTA-46">
          <mxGeometry x="730" y="225" width="190" height="140" as="geometry" />
        </mxCell>
        <mxCell id="szk8Xqu-uPIid_1Q9JTA-29" value="&lt;div style=&quot;text-align: center;&quot;&gt;&lt;span style=&quot;background-color: initial;&quot;&gt;CaseStudy.js&lt;/span&gt;&lt;/div&gt;&lt;div style=&quot;text-align: center;&quot;&gt;&lt;br&gt;&lt;/div&gt;&lt;ul&gt;&lt;li&gt;Call AnimateInTimeline in the order of the slides&lt;/li&gt;&lt;/ul&gt;&lt;div&gt;&lt;/div&gt;&lt;br&gt;" style="rounded=0;whiteSpace=wrap;html=1;align=left;" vertex="1" parent="szk8Xqu-uPIid_1Q9JTA-46">
          <mxGeometry x="730" y="405" width="190" height="140" as="geometry" />
        </mxCell>
        <mxCell id="szk8Xqu-uPIid_1Q9JTA-26" value="&lt;div style=&quot;text-align: center;&quot;&gt;&lt;span style=&quot;background-color: initial;&quot;&gt;CaseStudy.js&lt;/span&gt;&lt;/div&gt;&lt;div style=&quot;text-align: center;&quot;&gt;&lt;br&gt;&lt;/div&gt;&lt;ul&gt;&lt;li&gt;Call AnimateInTimeline in the order of the slides&lt;/li&gt;&lt;/ul&gt;&lt;div&gt;&lt;/div&gt;&lt;br&gt;" style="rounded=0;whiteSpace=wrap;html=1;align=left;" vertex="1" parent="szk8Xqu-uPIid_1Q9JTA-46">
          <mxGeometry x="730" y="45" width="190" height="140" as="geometry" />
        </mxCell>
        <mxCell id="szk8Xqu-uPIid_1Q9JTA-47" value="New System" style="swimlane;whiteSpace=wrap;html=1;fillColor=#d5e8d4;strokeColor=#82b366;" vertex="1" parent="1">
          <mxGeometry x="240" y="-1650" width="740" height="590" as="geometry" />
        </mxCell>
        <mxCell id="szk8Xqu-uPIid_1Q9JTA-34" value="&lt;div style=&quot;text-align: right;&quot;&gt;&lt;/div&gt;ClassAnimate.js&lt;br&gt;&lt;br&gt;&lt;ul&gt;&lt;li&gt;Create parent class: animations (including advanced and presets)&lt;/li&gt;&lt;li&gt;Possible creation of morph class&lt;/li&gt;&lt;li&gt;Create child class: item&lt;/li&gt;&lt;li&gt;&lt;br&gt;&lt;/li&gt;&lt;li style=&quot;border-color: var(--border-color);&quot;&gt;BtnNext func&lt;/li&gt;&lt;ul style=&quot;border-color: var(--border-color);&quot;&gt;&lt;li style=&quot;border-color: var(--border-color);&quot;&gt;progresses the timeline using CaseStudy.js Array&lt;/li&gt;&lt;/ul&gt;&lt;li style=&quot;border-color: var(--border-color);&quot;&gt;&amp;nbsp;&lt;/li&gt;&lt;li style=&quot;border-color: var(--border-color);&quot;&gt;BtnBack func&lt;/li&gt;&lt;ul style=&quot;border-color: var(--border-color);&quot;&gt;&lt;li style=&quot;border-color: var(--border-color);&quot;&gt;Backs up the timeline&lt;br&gt;&lt;/li&gt;&lt;/ul&gt;&lt;/ul&gt;&lt;br&gt;" style="rounded=0;whiteSpace=wrap;html=1;align=left;" vertex="1" parent="szk8Xqu-uPIid_1Q9JTA-47">
          <mxGeometry x="20" y="195" width="260" height="250" as="geometry" />
        </mxCell>
        <mxCell id="szk8Xqu-uPIid_1Q9JTA-38" style="edgeStyle=orthogonalEdgeStyle;rounded=0;orthogonalLoop=1;jettySize=auto;html=1;exitX=0;exitY=0.5;exitDx=0;exitDy=0;strokeWidth=3;" edge="1" parent="szk8Xqu-uPIid_1Q9JTA-47" source="szk8Xqu-uPIid_1Q9JTA-35" target="szk8Xqu-uPIid_1Q9JTA-34">
          <mxGeometry relative="1" as="geometry" />
        </mxCell>
        <mxCell id="szk8Xqu-uPIid_1Q9JTA-35" value="&lt;div style=&quot;text-align: center;&quot;&gt;&lt;span style=&quot;background-color: initial;&quot;&gt;CaseStudy.js&lt;/span&gt;&lt;/div&gt;&lt;div style=&quot;text-align: center;&quot;&gt;&lt;br&gt;&lt;/div&gt;&lt;ul&gt;&lt;li&gt;Create class for each item animated&lt;/li&gt;&lt;li&gt;Create list of methods in the order of slide animations&lt;/li&gt;&lt;/ul&gt;&lt;div&gt;&lt;/div&gt;" style="rounded=0;whiteSpace=wrap;html=1;align=left;" vertex="1" parent="szk8Xqu-uPIid_1Q9JTA-47">
          <mxGeometry x="425" y="60" width="290" height="140" as="geometry" />
        </mxCell>
        <mxCell id="szk8Xqu-uPIid_1Q9JTA-43" style="edgeStyle=orthogonalEdgeStyle;rounded=0;orthogonalLoop=1;jettySize=auto;html=1;exitX=0;exitY=0.5;exitDx=0;exitDy=0;strokeWidth=3;" edge="1" parent="szk8Xqu-uPIid_1Q9JTA-47" source="szk8Xqu-uPIid_1Q9JTA-41" target="szk8Xqu-uPIid_1Q9JTA-34">
          <mxGeometry relative="1" as="geometry" />
        </mxCell>
        <mxCell id="szk8Xqu-uPIid_1Q9JTA-41" value="&lt;div style=&quot;text-align: center;&quot;&gt;&lt;span style=&quot;background-color: initial;&quot;&gt;CaseStudy.js&lt;/span&gt;&lt;/div&gt;&lt;div style=&quot;text-align: center;&quot;&gt;&lt;br&gt;&lt;/div&gt;&lt;ul&gt;&lt;li&gt;Create class for each item animated&lt;/li&gt;&lt;li&gt;Create list of methods in the order of slide animations&lt;/li&gt;&lt;/ul&gt;&lt;div&gt;&lt;/div&gt;" style="rounded=0;whiteSpace=wrap;html=1;align=left;" vertex="1" parent="szk8Xqu-uPIid_1Q9JTA-47">
          <mxGeometry x="425" y="250" width="290" height="140" as="geometry" />
        </mxCell>
        <mxCell id="szk8Xqu-uPIid_1Q9JTA-44" style="edgeStyle=orthogonalEdgeStyle;rounded=0;orthogonalLoop=1;jettySize=auto;html=1;exitX=0;exitY=0.5;exitDx=0;exitDy=0;entryX=1;entryY=0.5;entryDx=0;entryDy=0;strokeWidth=3;" edge="1" parent="szk8Xqu-uPIid_1Q9JTA-47" source="szk8Xqu-uPIid_1Q9JTA-42" target="szk8Xqu-uPIid_1Q9JTA-34">
          <mxGeometry relative="1" as="geometry">
            <mxPoint x="325" y="470" as="targetPoint" />
          </mxGeometry>
        </mxCell>
        <mxCell id="szk8Xqu-uPIid_1Q9JTA-42" value="&lt;div style=&quot;text-align: center;&quot;&gt;&lt;span style=&quot;background-color: initial;&quot;&gt;CaseStudy.js&lt;/span&gt;&lt;/div&gt;&lt;div style=&quot;text-align: center;&quot;&gt;&lt;br&gt;&lt;/div&gt;&lt;ul&gt;&lt;li&gt;Create class for each item animated&lt;/li&gt;&lt;li&gt;Create list of methods in the order of slide animations&lt;/li&gt;&lt;/ul&gt;&lt;div&gt;&lt;/div&gt;" style="rounded=0;whiteSpace=wrap;html=1;align=left;" vertex="1" parent="szk8Xqu-uPIid_1Q9JTA-47">
          <mxGeometry x="425" y="440" width="290" height="140" as="geometry" />
        </mxCell>
        <mxCell id="szk8Xqu-uPIid_1Q9JTA-48" value="&lt;font style=&quot;font-size: 48px;&quot;&gt;&lt;u&gt;&lt;b&gt;Animations 3.0 - Classified&lt;/b&gt;&lt;/u&gt;&lt;/font&gt;" style="text;html=1;strokeColor=none;fillColor=none;align=center;verticalAlign=middle;whiteSpace=wrap;rounded=0;" vertex="1" parent="1">
          <mxGeometry x="-740" y="-1740" width="1700" height="60" as="geometry" />
        </mxCell>
        <mxCell id="szk8Xqu-uPIid_1Q9JTA-49" value="Class Diagram" style="swimlane;whiteSpace=wrap;html=1;startSize=23;fillColor=#d5e8d4;strokeColor=#82b366;" vertex="1" parent="1">
          <mxGeometry x="-240" y="-1034" width="690" height="334" as="geometry" />
        </mxCell>
        <mxCell id="HRhiw3p5UdutBXySXjKQ-10" value="Item" style="swimlane;fontStyle=1;align=center;verticalAlign=top;childLayout=stackLayout;horizontal=1;startSize=26;horizontalStack=0;resizeParent=1;resizeParentMax=0;resizeLast=0;collapsible=1;marginBottom=0;whiteSpace=wrap;html=1;" parent="szk8Xqu-uPIid_1Q9JTA-49" vertex="1">
          <mxGeometry x="410" y="104" width="160" height="204" as="geometry" />
        </mxCell>
        <mxCell id="HRhiw3p5UdutBXySXjKQ-11" value="-item_ID : string&lt;br&gt;&lt;br&gt;-og_x : int&lt;br&gt;-og_y : int&lt;br&gt;-og_opacity&lt;br&gt;-og_rotation&lt;br&gt;-og_scale" style="text;strokeColor=none;fillColor=default;align=left;verticalAlign=top;spacingLeft=4;spacingRight=4;overflow=hidden;rotatable=0;points=[[0,0.5],[1,0.5]];portConstraint=eastwest;whiteSpace=wrap;html=1;" parent="HRhiw3p5UdutBXySXjKQ-10" vertex="1">
          <mxGeometry y="26" width="160" height="144" as="geometry" />
        </mxCell>
        <mxCell id="HRhiw3p5UdutBXySXjKQ-12" value="" style="line;strokeWidth=1;fillColor=none;align=left;verticalAlign=middle;spacingTop=-1;spacingLeft=3;spacingRight=3;rotatable=0;labelPosition=right;points=[];portConstraint=eastwest;strokeColor=inherit;" parent="HRhiw3p5UdutBXySXjKQ-10" vertex="1">
          <mxGeometry y="170" width="160" height="8" as="geometry" />
        </mxCell>
        <mxCell id="HRhiw3p5UdutBXySXjKQ-13" value="Constructor(ID_String)" style="text;strokeColor=none;fillColor=default;align=left;verticalAlign=top;spacingLeft=4;spacingRight=4;overflow=hidden;rotatable=0;points=[[0,0.5],[1,0.5]];portConstraint=eastwest;whiteSpace=wrap;html=1;" parent="HRhiw3p5UdutBXySXjKQ-10" vertex="1">
          <mxGeometry y="178" width="160" height="26" as="geometry" />
        </mxCell>
        <mxCell id="HRhiw3p5UdutBXySXjKQ-14" value="Animations" style="swimlane;fontStyle=1;align=center;verticalAlign=top;childLayout=stackLayout;horizontal=1;startSize=26;horizontalStack=0;resizeParent=1;resizeParentMax=0;resizeLast=0;collapsible=1;marginBottom=0;whiteSpace=wrap;html=1;" parent="szk8Xqu-uPIid_1Q9JTA-49" vertex="1">
          <mxGeometry x="130" y="112" width="160" height="188" as="geometry" />
        </mxCell>
        <mxCell id="HRhiw3p5UdutBXySXjKQ-15" value="&amp;nbsp;" style="text;strokeColor=none;fillColor=default;align=left;verticalAlign=top;spacingLeft=4;spacingRight=4;overflow=hidden;rotatable=0;points=[[0,0.5],[1,0.5]];portConstraint=eastwest;whiteSpace=wrap;html=1;" parent="HRhiw3p5UdutBXySXjKQ-14" vertex="1">
          <mxGeometry y="26" width="160" height="34" as="geometry" />
        </mxCell>
        <mxCell id="HRhiw3p5UdutBXySXjKQ-16" value="" style="line;strokeWidth=1;fillColor=none;align=left;verticalAlign=middle;spacingTop=-1;spacingLeft=3;spacingRight=3;rotatable=0;labelPosition=right;points=[];portConstraint=eastwest;strokeColor=inherit;" parent="HRhiw3p5UdutBXySXjKQ-14" vertex="1">
          <mxGeometry y="60" width="160" height="8" as="geometry" />
        </mxCell>
        <mxCell id="HRhiw3p5UdutBXySXjKQ-17" value="+Advanced(): func&lt;br&gt;+ FadeIn() : func&lt;br&gt;+FadeOut() : func&lt;br&gt;etc..." style="text;strokeColor=none;fillColor=default;align=left;verticalAlign=top;spacingLeft=4;spacingRight=4;overflow=hidden;rotatable=0;points=[[0,0.5],[1,0.5]];portConstraint=eastwest;whiteSpace=wrap;html=1;" parent="HRhiw3p5UdutBXySXjKQ-14" vertex="1">
          <mxGeometry y="68" width="160" height="120" as="geometry" />
        </mxCell>
        <mxCell id="HRhiw3p5UdutBXySXjKQ-19" style="edgeStyle=orthogonalEdgeStyle;rounded=0;orthogonalLoop=1;jettySize=auto;html=1;exitX=0;exitY=0.25;exitDx=0;exitDy=0;entryX=1;entryY=0.5;entryDx=0;entryDy=0;strokeWidth=3;endSize=7;startSize=7;" parent="szk8Xqu-uPIid_1Q9JTA-49" source="HRhiw3p5UdutBXySXjKQ-10" target="HRhiw3p5UdutBXySXjKQ-15" edge="1">
          <mxGeometry relative="1" as="geometry" />
        </mxCell>
      </root>
    </mxGraphModel>
  </diagram>
</mxfile>
